<?xml version="1.0" encoding="UTF-8"?>
<svg width="81px" height="27px" viewBox="0 0 81 27" version="1.1" xmlns="http://www.w3.org/2000/svg" xmlns:xlink="http://www.w3.org/1999/xlink">
    <!-- Generator: Sketch 60.1 (88133) - https://sketch.com -->
    <title>unique</title>
    <desc>Created with Sketch.</desc>
    <g id="Page-1" stroke="none" stroke-width="1" fill="none" fill-rule="evenodd">
        <g id="Artboard" transform="translate(-50.000000, -25.000000)" fill="#000000" fill-rule="nonzero">
            <g id="Menu">
                <path d="M55.0113636,46.3778409 C56.1581439,46.3778409 57.117661,46.1077178 57.8899148,45.5674716 C58.6621686,45.0272254 59.2239583,44.3494318 59.5752841,43.5340909 L59.5752841,43.5340909 L59.734375,43.5340909 L59.734375,46.1789773 L62.6576705,46.1789773 L62.6576705,30.90625 L59.6747159,30.90625 L59.6747159,39.8451705 C59.6813447,40.7069129 59.5007102,41.4211648 59.1328125,41.9879261 C58.7649148,42.5546875 58.304214,42.9772727 57.7507102,43.2556818 C57.1972064,43.5340909 56.6420455,43.6732955 56.0852273,43.6732955 C55.1638258,43.6732955 54.4147727,43.3650568 53.8380682,42.7485795 C53.2613636,42.1321023 52.9730114,41.3035038 52.9730114,40.2627841 L52.9730114,40.2627841 L52.9730114,30.90625 L50,30.90625 L50,40.6207386 C50,42.516572 50.4689867,43.9500473 51.4069602,44.9211648 C52.3449337,45.8922822 53.5464015,46.3778409 55.0113636,46.3778409 Z M68.2178977,46.1789773 L68.2178977,37.1107955 C68.2178977,35.8910985 68.5526515,34.9481534 69.2221591,34.2819602 C69.8916667,33.615767 70.7434659,33.2826705 71.7775568,33.2826705 C72.7851326,33.2826705 73.5772727,33.5958807 74.1539773,34.2223011 C74.7306818,34.8487216 75.0190341,35.7154356 75.0190341,36.8224432 L75.0190341,36.8224432 L75.0190341,46.1789773 L77.9920455,46.1789773 L77.9920455,36.4644886 C77.9920455,34.5752841 77.5164299,33.1434659 76.5651989,32.1690341 C75.6139678,31.1946023 74.3561553,30.7073864 72.7917614,30.7073864 C71.6449811,30.7073864 70.6954072,30.9526515 69.9430398,31.4431818 C69.1906723,31.9337121 68.6388258,32.5833333 68.2875,33.3920455 L68.2875,33.3920455 L68.0985795,33.3920455 L68.0985795,30.90625 L65.2448864,30.90625 L65.2448864,46.1789773 L68.2178977,46.1789773 Z M82.0707386,28.5497159 C82.5811553,28.5497159 83.0219697,28.3757102 83.3931818,28.0276989 C83.7643939,27.6796875 83.95,27.2637311 83.95,26.7798295 C83.95,26.2892992 83.7643939,25.8700284 83.3931818,25.522017 C83.0219697,25.1740057 82.5811553,25 82.0707386,25 C81.5536932,25 81.1112216,25.1740057 80.7433239,25.522017 C80.3754261,25.8700284 80.1914773,26.2892992 80.1914773,26.7798295 C80.1914773,27.2637311 80.3754261,27.6796875 80.7433239,28.0276989 C81.1112216,28.3757102 81.5536932,28.5497159 82.0707386,28.5497159 Z M83.5423295,46.1789773 L83.5423295,30.90625 L80.5693182,30.90625 L80.5693182,46.1789773 L83.5423295,46.1789773 Z M99.4235795,51.90625 L99.4235795,30.90625 L96.5201705,30.90625 L96.5201705,33.3821023 L96.2715909,33.3821023 C96.0926136,33.0639205 95.8423769,32.6960227 95.5208807,32.2784091 C95.1993845,31.8607955 94.7486269,31.4945549 94.168608,31.1796875 C93.588589,30.8648201 92.8279356,30.7073864 91.8866477,30.7073864 C90.6536932,30.7073864 89.5549716,31.0189394 88.590483,31.6420455 C87.6259943,32.2651515 86.8653409,33.1633523 86.3085227,34.3366477 C85.7517045,35.5099432 85.4732955,36.921875 85.4732955,38.5724432 C85.4732955,40.2163826 85.7483902,41.6299716 86.2985795,42.8132102 C86.8487689,43.9964489 87.6044508,44.9029356 88.565625,45.5326705 C89.5267992,46.1624053 90.6238636,46.4772727 91.8568182,46.4772727 C92.7848485,46.4772727 93.5405303,46.3214962 94.1238636,46.0099432 C94.707197,45.6983902 95.1662405,45.3338068 95.5009943,44.9161932 C95.8357481,44.4985795 96.0926136,44.1273674 96.2715909,43.8025568 L96.4505682,43.8025568 L96.4505682,51.90625 L99.4235795,51.90625 Z M92.5230114,43.9417614 C91.6347538,43.9417614 90.8906723,43.7047822 90.290767,43.2308239 C89.6908617,42.7568655 89.238447,42.1122159 88.9335227,41.296875 C88.6285985,40.4815341 88.4761364,39.563447 88.4761364,38.5426136 C88.4761364,37.5284091 88.6269413,36.6219223 88.9285511,35.8231534 C89.230161,35.0243845 89.6792614,34.3929924 90.2758523,33.9289773 C90.8724432,33.4649621 91.6214962,33.2329545 92.5230114,33.2329545 C93.8222538,33.2329545 94.8116004,33.7185133 95.4910511,34.6896307 C96.1705019,35.6607481 96.5102273,36.9450758 96.5102273,38.5426136 C96.5102273,40.1467803 96.1655303,41.4476799 95.4761364,42.4453125 C94.7867424,43.4429451 93.8023674,43.9417614 92.5230114,43.9417614 Z M107.032102,46.3778409 C108.178883,46.3778409 109.1384,46.1077178 109.910653,45.5674716 C110.682907,45.0272254 111.244697,44.3494318 111.596023,43.5340909 L111.596023,43.5340909 L111.755114,43.5340909 L111.755114,46.1789773 L114.678409,46.1789773 L114.678409,30.90625 L111.695455,30.90625 L111.695455,39.8451705 C111.702083,40.7069129 111.521449,41.4211648 111.153551,41.9879261 C110.785653,42.5546875 110.324953,42.9772727 109.771449,43.2556818 C109.217945,43.5340909 108.662784,43.6732955 108.105966,43.6732955 C107.184564,43.6732955 106.435511,43.3650568 105.858807,42.7485795 C105.282102,42.1321023 104.99375,41.3035038 104.99375,40.2627841 L104.99375,40.2627841 L104.99375,30.90625 L102.020739,30.90625 L102.020739,40.6207386 C102.020739,42.516572 102.489725,43.9500473 103.427699,44.9211648 C104.365672,45.8922822 105.56714,46.3778409 107.032102,46.3778409 Z M123.848011,46.4872159 C125.511837,46.4872159 126.903883,46.109375 128.024148,45.3536932 C129.144413,44.5980114 129.87358,43.6003788 130.211648,42.3607955 L130.211648,42.3607955 L127.397727,41.8536932 C127.132576,42.5762311 126.691761,43.1197917 126.075284,43.484375 C125.458807,43.8489583 124.726326,44.03125 123.877841,44.03125 C122.605114,44.03125 121.574337,43.6335227 120.785511,42.8380682 C119.996686,42.0426136 119.582386,40.9090909 119.542614,39.4375 L119.542614,39.4375 L130.400568,39.4375 L130.400568,38.3835227 C130.400568,36.5407197 130.077415,35.0575284 129.431108,33.9339489 C128.784801,32.8103693 127.946259,31.991714 126.915483,31.477983 C125.884706,30.9642519 124.792614,30.7073864 123.639205,30.7073864 C122.220644,30.7073864 120.982718,31.0421402 119.925426,31.7116477 C118.868134,32.3811553 118.046165,33.3125 117.459517,34.5056818 C116.872869,35.6988636 116.579545,37.0776515 116.579545,38.6420455 C116.579545,40.219697 116.872869,41.5968277 117.459517,42.7734375 C118.046165,43.9500473 118.883049,44.8631629 119.97017,45.5127841 C121.057292,46.1624053 122.349905,46.4872159 123.848011,46.4872159 Z M127.487216,37.2102273 L119.552557,37.2102273 C119.59233,36.4876894 119.786222,35.819839 120.134233,35.2066761 C120.482244,34.5935133 120.956203,34.0996686 121.556108,33.725142 C122.156013,33.3506155 122.857008,33.1633523 123.659091,33.1633523 C124.8125,33.1633523 125.737216,33.5461648 126.433239,34.3117898 C127.129261,35.0774148 127.480587,36.0435606 127.487216,37.2102273 L127.487216,37.2102273 Z" id="unique"></path>
            </g>
        </g>
    </g>
</svg>